<?xml version="1.0" standalone="no"?>
<!DOCTYPE svg PUBLIC "-//W3C//DTD SVG 20010904//EN"
 "http://www.w3.org/TR/2001/REC-SVG-20010904/DTD/svg10.dtd">
<svg version="1.0" xmlns="http://www.w3.org/2000/svg"
 width="598.000000pt" height="617.000000pt" viewBox="0 0 598.000000 617.000000"
 preserveAspectRatio="xMidYMid meet">

<g transform="translate(0.000000,617.000000) scale(0.100000,-0.100000)"
fill="currentColor" stroke="none">
<path d="M2778 5372 c-103 -64 -276 -171 -385 -237 -248 -151 -453 -278 -565
-349 l-88 -56 0 -454 0 -455 58 36 c31 19 140 85 241 147 l184 111 17 61 c53
196 170 272 641 419 65 20 151 56 193 80 l76 43 0 -106 0 -107 -40 -28 c-180
-127 -314 -287 -356 -426 -31 -102 -7 -233 60 -318 59 -75 133 -126 579 -393
l437 -261 200 122 200 123 0 707 0 707 -342 206 -343 206 -5 -683 c-5 -654 -6
-684 -24 -712 -22 -34 -137 -180 -142 -180 -2 0 -78 45 -169 100 -237 142
-277 180 -277 269 1 113 107 244 319 390 l103 70 1 418 c1 230 2 425 3 433 1
15 -354 235 -377 235 -7 -1 -96 -54 -199 -118z m291 -149 l81 -47 0 -108 0
-107 -62 -50 c-67 -54 -132 -90 -220 -120 l-54 -19 -64 30 c-75 33 -262 156
-256 167 3 4 66 45 142 91 76 47 181 113 233 147 53 34 101 62 108 62 6 1 48
-20 92 -46z m-700 -405 c27 -24 75 -59 109 -78 34 -19 62 -38 62 -42 0 -3 -38
-27 -85 -52 -202 -107 -307 -197 -348 -298 -14 -35 -28 -70 -31 -80 -4 -13
-136 -108 -151 -108 -3 0 -5 104 -5 230 l0 231 48 29 c204 128 338 208 346
209 4 1 29 -18 55 -41z m1428 -39 c38 -23 107 -66 156 -96 l87 -56 0 -261 0
-261 -163 -97 c-89 -53 -163 -95 -165 -94 -1 2 4 21 12 42 47 125 54 324 17
477 -17 69 -21 119 -21 237 0 83 2 150 5 150 2 0 35 -19 72 -41z m243 -1118
l0 -229 -105 -67 -105 -67 -127 78 c-71 42 -134 83 -142 90 -13 12 -8 24 34
85 63 92 112 133 292 246 81 51 149 93 151 93 1 0 2 -103 2 -229z"/>
<path d="M2460 4179 c-115 -71 -110 -62 -110 -222 l0 -139 -22 7 c-139 43
-169 35 -410 -102 l-188 -108 2 -149 3 -149 90 -55 c50 -31 153 -95 230 -142
77 -48 203 -126 280 -172 244 -148 487 -298 567 -349 42 -27 80 -49 83 -49 3
0 54 31 113 68 59 38 209 131 334 208 125 76 227 142 227 145 1 4 -41 31 -91
62 -51 30 -140 85 -198 121 -102 64 -107 66 -171 66 -101 0 -180 28 -284 100
-22 15 -115 103 -207 194 l-168 167 0 269 c0 149 -3 270 -7 269 -5 0 -37 -18
-73 -40z m-173 -556 c116 -72 104 -39 101 -275 l-3 -207 -151 92 c-352 215
-313 187 -314 233 l0 41 133 77 c72 41 141 76 153 76 11 0 48 -17 81 -37z
m465 -415 c70 -59 181 -125 243 -144 27 -9 84 -19 125 -22 57 -6 88 -15 128
-38 40 -23 50 -33 40 -41 -32 -25 -294 -186 -303 -186 -5 0 -78 42 -161 94
-84 52 -173 106 -198 121 l-46 28 0 177 0 178 60 -61 c32 -34 83 -82 112 -106z"/>
<path d="M3703 2235 c-106 -33 -214 -131 -255 -233 -19 -48 -23 -75 -23 -172
0 -110 2 -119 32 -180 65 -132 181 -212 325 -228 176 -18 312 33 404 151 l35
44 -3 129 -3 129 -192 3 -193 2 0 -79 0 -80 112 -3 c104 -3 111 -4 114 -24 4
-25 -34 -63 -91 -93 -122 -63 -274 -16 -338 103 -18 33 -22 58 -22 131 0 81 3
95 28 138 87 147 298 166 400 35 l25 -31 44 26 c24 14 55 34 68 45 l24 20 -27
41 c-33 50 -100 99 -165 123 -58 20 -238 23 -299 3z"/>
<path d="M1220 1960 c0 -295 -5 -334 -48 -366 -20 -16 -86 -18 -111 -4 -10 5
-24 23 -31 41 l-13 31 -76 -7 c-42 -4 -79 -9 -83 -12 -22 -13 16 -110 60 -156
48 -50 86 -62 202 -62 97 0 109 2 153 28 26 15 58 45 72 65 52 79 55 102 55
423 l0 299 -90 0 -90 0 0 -280z"/>
<path d="M1812 2163 c-17 -43 -80 -199 -140 -348 -60 -148 -118 -296 -130
-327 l-22 -58 94 0 94 0 30 78 29 77 173 0 172 0 28 -75 27 -75 97 -3 c53 -1
96 0 96 4 0 3 -63 162 -141 352 -77 191 -150 371 -162 400 l-21 52 -96 0 -97
0 -31 -77z m150 -170 c8 -27 34 -94 56 -150 22 -56 37 -104 34 -107 -3 -3 -54
-6 -114 -6 -80 0 -108 3 -108 13 0 6 19 62 41 122 23 61 46 125 52 143 6 17
13 32 17 32 3 0 13 -21 22 -47z"/>
<path d="M2500 1835 l0 -405 90 0 90 0 0 250 c0 138 3 250 8 249 4 0 92 -112
196 -250 l189 -249 83 0 84 0 0 405 0 406 -87 -3 -88 -3 -5 -248 -5 -247 -194
250 -194 250 -84 0 -83 0 0 -405z"/>
<path d="M4624 2228 c-9 -14 -177 -425 -239 -583 -23 -60 -52 -134 -64 -163
l-21 -53 97 3 97 3 27 75 27 75 172 0 172 0 28 -75 27 -75 96 -3 96 -3 -24 64
c-20 55 -90 226 -142 347 -8 19 -47 116 -86 215 l-72 180 -92 3 c-65 2 -94 -1
-99 -10z m155 -340 c28 -75 51 -141 51 -147 0 -13 -216 -16 -223 -3 -6 12 106
303 114 295 4 -5 30 -69 58 -145z"/>
<path d="M1373 1091 c-23 -11 -49 -31 -58 -45 -23 -35 -30 -105 -15 -150 30
-91 164 -122 236 -55 29 27 30 35 4 49 -15 8 -24 6 -40 -10 -30 -30 -99 -28
-129 4 -28 30 -32 108 -6 136 31 34 68 43 109 26 20 -8 36 -20 36 -25 0 -7 9
-7 25 1 31 14 31 19 3 46 -48 44 -101 52 -165 23z"/>
<path d="M1750 1087 c-139 -73 -87 -281 69 -281 59 0 103 26 131 77 45 79 10
176 -77 213 -45 20 -73 17 -123 -9z m127 -53 c25 -16 38 -68 28 -113 -21 -95
-175 -75 -175 23 0 53 17 85 52 101 35 15 59 12 95 -11z"/>
<path d="M2524 1095 c-30 -16 -54 -51 -54 -79 0 -28 38 -60 96 -80 46 -16 60
-26 62 -43 3 -17 -3 -26 -22 -33 -29 -11 -52 -5 -81 21 -17 15 -24 16 -43 5
l-23 -12 21 -27 c60 -75 210 -45 210 43 0 40 -26 67 -83 85 -60 20 -82 37 -74
59 11 27 55 31 88 7 23 -18 33 -20 50 -11 24 14 21 27 -12 53 -36 26 -97 31
-135 12z"/>
<path d="M4470 1099 c-131 -52 -127 -252 6 -288 91 -24 174 31 174 116 l0 43
-60 0 c-57 0 -60 -1 -60 -25 0 -21 5 -25 30 -25 19 0 30 -5 30 -14 0 -49 -93
-64 -135 -21 -48 47 -25 144 38 164 35 12 61 6 99 -21 13 -9 20 -9 32 2 15 12
15 15 -1 33 -37 41 -102 56 -153 36z"/>
<path d="M2090 955 l0 -145 25 0 c25 0 25 1 25 90 0 50 3 90 8 90 4 -1 36 -41
72 -90 54 -75 70 -89 93 -90 l27 0 0 145 0 145 -25 0 c-24 0 -24 -1 -27 -97
l-3 -97 -73 97 c-57 76 -78 97 -98 97 l-24 0 0 -145z"/>
<path d="M2810 993 c0 -98 2 -109 25 -139 46 -60 141 -66 196 -12 29 29 29 31
29 144 l0 114 -25 0 c-25 0 -25 0 -25 -98 0 -119 -11 -142 -70 -142 -36 0 -68
18 -71 41 -1 5 -3 14 -4 19 -1 6 -3 48 -4 95 -1 84 -1 85 -26 85 l-25 0 0
-107z"/>
<path d="M3200 955 l0 -145 95 0 c95 0 95 0 95 25 0 24 -2 25 -70 25 l-70 0 0
120 0 120 -25 0 -25 0 0 -145z"/>
<path d="M3450 1075 c0 -23 4 -25 45 -25 l45 0 0 -120 0 -120 30 0 30 0 0 119
0 120 43 3 c34 2 42 7 42 23 0 19 -8 20 -117 23 l-118 3 0 -26z"/>
<path d="M3800 955 l0 -145 30 0 30 0 0 145 0 145 -30 0 -30 0 0 -145z"/>
<path d="M4000 955 l0 -145 25 0 c25 0 25 1 25 90 0 50 3 90 8 90 4 0 36 -41
71 -90 55 -77 68 -90 93 -90 l28 0 0 145 0 145 -29 0 -29 0 1 -90 c1 -50 -1
-90 -5 -90 -3 0 -36 41 -72 90 -53 71 -72 90 -91 90 l-25 0 0 -145z"/>
</g>
</svg>
